<?xml version="1.0" encoding="UTF-8" standalone="no"?>
<!-- Created with Inkscape (http://www.inkscape.org/) -->

<svg
   width="48"
   height="25"
   viewBox="0 0 48 25"
   version="1.1"
   id="svg1"
   xml:space="preserve"
   inkscape:version="1.3.2 (091e20ef0f, 2023-11-25)"
   sodipodi:docname="yana-logo-no-background.svg"
   xmlns:inkscape="http://www.inkscape.org/namespaces/inkscape"
   xmlns:sodipodi="http://sodipodi.sourceforge.net/DTD/sodipodi-0.dtd"
   xmlns="http://www.w3.org/2000/svg"
   xmlns:svg="http://www.w3.org/2000/svg"><sodipodi:namedview
     id="namedview1"
     pagecolor="#333333"
     bordercolor="#000000"
     borderopacity="0.31764706"
     inkscape:showpageshadow="2"
     inkscape:pageopacity="0.0"
     inkscape:pagecheckerboard="0"
     inkscape:deskcolor="#d0d0d0"
     inkscape:document-units="px"
     inkscape:zoom="11.313709"
     inkscape:cx="21.655144"
     inkscape:cy="19.843183"
     inkscape:window-width="1920"
     inkscape:window-height="1048"
     inkscape:window-x="0"
     inkscape:window-y="0"
     inkscape:window-maximized="1"
     inkscape:current-layer="layer1" /><defs
     id="defs1" /><g
     inkscape:label="Camada 1"
     inkscape:groupmode="layer"
     id="layer1"><rect
       style="fill:#193838;fill-opacity:0;stroke-width:0.360844;stroke-linecap:round;stroke-linejoin:round"
       id="rect18"
       width="48"
       height="25"
       x="0"
       y="0" /><g
       id="g18"
       transform="translate(2.0712621,-11.499506)"><path
         id="path15"
         style="display:inline;fill:#fdfdfd;fill-opacity:1"
         d="M 7.5771754 12.6831 C 7.3087591 12.6773 7.0458218 12.72261 6.7920191 12.817865 C 6.5382165 12.913115 6.3187709 13.059971 6.1299098 13.257319 L 4.7158473 14.636225 C 4.5105709 14.816437 4.3584431 15.031097 4.2607691 15.280756 C 4.1630952 15.530415 4.1118781 15.783025 4.1064723 16.034662 C 4.1007023 16.303079 4.1405234 16.557009 4.227566 16.80224 C 4.3146089 17.047476 4.458313 17.274337 4.6553004 17.479975 L 10.876004 23.974115 L 8.0752223 31.448725 L 9.8388941 35.315912 L 13.706082 33.55224 L 20.227566 16.099115 C 20.326566 15.834166 20.367473 15.571876 20.350613 15.313959 C 20.333753 15.056042 20.269843 14.806592 20.159207 14.563959 C 20.055485 14.336491 19.910787 14.128396 19.72366 13.938959 C 19.536533 13.749523 19.313727 13.612635 19.055691 13.528803 L 17.22366 12.825678 C 16.973874 12.719766 16.715272 12.672318 16.446316 12.685053 C 16.177361 12.697793 15.921371 12.759963 15.678738 12.8706 C 15.436108 12.981237 15.224322 13.132473 15.045925 13.323725 C 14.867529 13.514976 14.726055 13.734094 14.620144 13.983881 L 13.227566 17.700678 L 8.9990504 13.292475 C 8.8017025 13.103613 8.5819368 12.956948 8.3408473 12.851069 C 8.0997571 12.745188 7.8455916 12.688866 7.5771754 12.6831 z M 10.3428 17.577631 L 12.448269 19.77685 L 13.97366 21.3706 L 14.752957 19.288569 L 14.8428 19.048334 L 14.838894 19.046381 L 15.389675 17.577631 L 17.278347 18.286615 L 16.963894 19.126459 L 16.729519 19.753412 L 16.299832 20.90185 L 15.522488 22.985834 L 14.733425 25.095209 L 13.952175 27.187006 L 12.126004 32.075678 L 10.829129 32.665522 L 10.237332 31.3706 L 12.4053 25.569819 L 13.18655 23.478022 L 11.659207 21.884272 L 8.8760035 18.979975 L 10.3428 17.577631 z M 22.024441 19.962397 C 21.451526 19.962397 20.933727 20.061572 20.47366 20.261225 C 20.013592 20.456537 19.658989 20.728457 19.407254 21.075678 C 19.155518 21.422899 19.028347 21.800505 19.028347 22.20849 L 20.91116 22.20849 C 20.91116 21.943734 20.998834 21.7354 21.176785 21.58349 C 21.359076 21.431581 21.609946 21.354975 21.926785 21.354975 C 22.287026 21.354975 22.548964 21.452632 22.713894 21.647944 C 22.883165 21.843255 22.9678 22.103674 22.9678 22.429194 L 22.9678 22.83349 L 22.102566 22.83349 C 21.056562 22.83783 20.255776 23.039655 19.700222 23.438959 C 19.149009 23.838263 18.872097 24.411184 18.872097 25.157709 C 18.872097 25.765346 19.098444 26.26817 19.549832 26.667475 C 20.005559 27.066778 20.57848 27.267084 21.268582 27.267084 C 21.997746 27.267084 22.590198 27.013176 23.045925 26.505365 C 23.084987 26.7571 23.148573 26.966955 23.235379 27.136225 L 25.135769 27.136225 L 25.135769 27.024897 C 24.953471 26.682016 24.860806 26.177672 24.856472 25.509272 L 24.856472 22.454584 C 24.856472 21.664656 24.599092 21.052673 24.086941 20.618647 C 23.57913 20.18028 22.892493 19.962397 22.024441 19.962397 z M 30.116238 19.962397 C 29.269887 19.962397 28.594318 20.276418 28.090847 20.905756 L 28.032254 20.091303 L 26.262722 20.091303 L 26.262722 27.136225 L 28.143582 27.136225 L 28.143582 22.169428 C 28.408337 21.71804 28.805476 21.491694 29.334988 21.491694 C 29.738632 21.491694 30.026612 21.58284 30.200222 21.765131 C 30.373833 21.943082 30.461941 22.231061 30.461941 22.630365 L 30.461941 27.136225 L 32.3428 27.136225 L 32.3428 22.585444 C 32.33412 21.71305 32.146836 21.057013 31.782254 20.618647 C 31.417672 20.18028 30.862763 19.962397 30.116238 19.962397 z M 36.639675 19.962397 C 36.066761 19.962397 35.550915 20.061572 35.090847 20.261225 C 34.630779 20.456537 34.274223 20.728457 34.022488 21.075678 C 33.770753 21.422899 33.645535 21.800505 33.645535 22.20849 L 35.526394 22.20849 C 35.526394 21.943734 35.616022 21.7354 35.793972 21.58349 C 35.976263 21.431581 36.22518 21.354975 36.542019 21.354975 C 36.902261 21.354975 37.164199 21.452632 37.329129 21.647944 C 37.498399 21.843255 37.583035 22.103674 37.583035 22.429194 L 37.583035 22.83349 L 36.7178 22.83349 C 35.671797 22.83783 34.87101 23.039655 34.315457 23.438959 C 33.764243 23.838263 33.489285 24.411184 33.489285 25.157709 C 33.489285 25.765346 33.713678 26.26817 34.165066 26.667475 C 34.620794 27.066778 35.193714 27.267084 35.883816 27.267084 C 36.61298 27.267084 37.205432 27.013176 37.66116 26.505365 C 37.700222 26.7571 37.763808 26.966955 37.850613 27.136225 L 39.751004 27.136225 L 39.751004 27.024897 C 39.568706 26.682016 39.47604 26.177672 39.471707 25.509272 L 39.471707 22.454584 C 39.471707 21.664656 39.216279 21.052673 38.704129 20.618647 C 38.196318 20.18028 37.507728 19.962397 36.639675 19.962397 z M 22.264675 23.9331 L 22.9678 23.9331 L 22.9678 25.144037 C 22.854954 25.35237 22.68069 25.520123 22.446316 25.64599 C 22.211942 25.767518 21.956514 25.827631 21.678738 25.827631 C 21.39228 25.827631 21.165933 25.751025 21.001004 25.599115 C 20.836074 25.447206 20.75491 25.255365 20.75491 25.02099 L 20.760769 24.909662 C 20.821533 24.258623 21.322838 23.9331 22.264675 23.9331 z M 36.87991 23.9331 L 37.583035 23.9331 L 37.583035 25.144037 C 37.470188 25.35237 37.297878 25.520123 37.063504 25.64599 C 36.829129 25.767518 36.571749 25.827631 36.293972 25.827631 C 36.007515 25.827631 35.783121 25.751025 35.618191 25.599115 C 35.453261 25.447206 35.370144 25.255365 35.370144 25.02099 L 35.376004 24.909662 C 35.436767 24.258623 35.938073 23.9331 36.87991 23.9331 z " /></g></g></svg>
